# This file uses centimeters as units for non-parametric coordinates.

mtllib Grass_1.mtl
g default
v -0.234438 0.000000 -0.021201
v 0.197898 0.000000 -0.349989
v 0.630234 0.000000 -0.472814
v -0.234438 0.500000 -0.178206
v 0.197898 0.500000 -0.349989
v 0.630234 0.500000 -0.601158
v -0.234438 1.000000 -0.393325
v 0.197898 1.000000 -0.507746
v 0.630234 1.000000 -0.758914
v -0.481978 0.000000 0.608951
v -0.099520 0.000000 0.326953
v 0.158920 0.000000 -0.161214
v -0.453349 0.500000 0.656544
v -0.099520 0.500000 0.326953
v 0.222470 0.500000 -0.055569
v -0.533736 1.000000 0.522909
v -0.099520 1.000000 0.326953
v 0.307856 1.000000 0.086377
v 0.079018 0.000000 -0.810270
v 0.225898 0.000000 -0.332330
v 0.238518 0.000000 0.117766
v 0.079018 0.500000 -0.810270
v 0.225898 0.500000 -0.332330
v 0.372779 0.500000 0.145609
v 0.079018 1.000000 -0.810270
v 0.225898 1.000000 -0.332330
v 0.372779 1.000000 0.145609
v -0.503342 0.000000 0.139363
v -0.112796 0.000000 -0.160520
v 0.073023 0.000000 -0.579826
v -0.412851 0.500000 0.239439
v -0.112796 0.500000 -0.160520
v 0.077873 0.500000 -0.579005
v -0.539513 1.000000 0.132765
v -0.112796 1.000000 -0.160520
v -0.071807 1.000000 -0.604354
v 0.506981 0.000000 0.348133
v 0.018278 0.000000 0.242446
v -0.470425 0.000000 0.136759
v 0.506981 0.500000 0.348133
v 0.018278 0.500000 0.242446
v -0.470425 0.500000 0.136759
v 0.445417 1.000000 0.558167
v 0.018278 1.000000 0.242446
v -0.431623 1.000000 0.004382
vt 0.000000 0.000000
vt 0.500000 0.000000
vt 0.500000 0.500000
vt 0.000000 0.500000
vt 1.000000 0.000000
vt 1.000000 0.500000
vt 0.500000 1.000000
vt 0.000000 1.000000
vt 1.000000 1.000000
vt 0.000000 0.000000
vt 0.500000 0.000000
vt 0.500000 0.500000
vt 0.000000 0.500000
vt 1.000000 0.000000
vt 1.000000 0.500000
vt 0.500000 1.000000
vt 0.000000 1.000000
vt 1.000000 1.000000
vt 0.000000 0.000000
vt 0.500000 0.000000
vt 0.500000 0.500000
vt 0.000000 0.500000
vt 1.000000 0.000000
vt 1.000000 0.500000
vt 0.500000 1.000000
vt 0.000000 1.000000
vt 1.000000 1.000000
vt 0.000000 0.000000
vt 0.500000 0.000000
vt 0.500000 0.500000
vt 0.000000 0.500000
vt 1.000000 0.000000
vt 1.000000 0.500000
vt 0.500000 1.000000
vt 0.000000 1.000000
vt 1.000000 1.000000
vt 0.000000 0.000000
vt 0.500000 0.000000
vt 0.500000 0.500000
vt 0.000000 0.500000
vt 1.000000 0.000000
vt 1.000000 0.500000
vt 0.500000 1.000000
vt 0.000000 1.000000
vt 1.000000 1.000000
vn 0.496453 0.134641 0.857559
vn 0.447679 0.126300 0.885230
vn 0.419541 0.215168 0.881866
vn 0.410888 0.226099 0.883204
vn 0.394258 0.116989 0.911523
vn 0.447327 0.200562 0.871593
vn 0.402611 0.296332 0.866078
vn 0.296219 0.333698 0.894930
vn 0.484626 0.263197 0.834185
vn 0.637999 -0.054820 0.768083
vn 0.744918 -0.085033 0.661715
vn 0.679622 -0.046079 0.732114
vn 0.597769 0.048561 0.800197
vn 0.826941 -0.110790 0.551266
vn 0.750201 -0.134852 0.647312
vn 0.603547 -0.004822 0.797313
vn 0.548222 0.153924 0.822046
vn 0.641045 -0.161249 0.750373
vn -0.955879 0.000000 0.293762
vn -0.970392 0.061893 0.233472
vn -0.963952 0.030516 0.264319
vn -0.955879 0.000000 0.293762
vn -0.977623 0.126579 0.168023
vn -0.969914 0.059203 0.236139
vn -0.955879 0.000000 0.293762
vn -0.955879 0.000000 0.293762
vn -0.955879 0.000000 0.293762
vn 0.705420 -0.133497 0.696104
vn 0.819362 -0.072904 0.568622
vn 0.835776 0.044168 0.547292
vn 0.700743 0.018108 0.713184
vn 0.912122 -0.004760 0.409892
vn 0.938608 0.070300 0.337747
vn 0.840105 0.162171 0.517614
vn 0.681053 0.162428 0.713991
vn 0.954914 0.149435 0.256533
vn 0.211374 0.000000 -0.977405
vn 0.211374 0.000000 -0.977405
vn 0.297646 0.020224 -0.954462
vn 0.314189 0.107717 -0.943230
vn 0.211374 0.000000 -0.977405
vn 0.277227 -0.068389 -0.958368
vn 0.381108 0.040201 -0.923656
vn 0.408536 0.211633 -0.887868
vn 0.340687 -0.136362 -0.930236
s 1
g polySurface1
usemtl initialShadingGroup
f 1/1/1 2/2/2 5/3/3 4/4/4
f 2/2/2 3/5/5 6/6/6 5/3/3
f 4/4/4 5/3/3 8/7/7 7/8/8
f 5/3/3 6/6/6 9/9/9 8/7/7
s 2
f 10/10/10 11/11/11 14/12/12 13/13/13
f 11/11/11 12/14/14 15/15/15 14/12/12
f 13/13/13 14/12/12 17/16/16 16/17/17
f 14/12/12 15/15/15 18/18/18 17/16/16
s 3
f 19/19/19 20/20/20 23/21/21 22/22/22
f 20/20/20 21/23/23 24/24/24 23/21/21
f 22/22/22 23/21/21 26/25/25 25/26/26
f 23/21/21 24/24/24 27/27/27 26/25/25
s 4
f 28/28/28 29/29/29 32/30/30 31/31/31
f 29/29/29 30/32/32 33/33/33 32/30/30
f 31/31/31 32/30/30 35/34/34 34/35/35
f 32/30/30 33/33/33 36/36/36 35/34/34
s 5
f 37/37/37 38/38/38 41/39/39 40/40/40
f 38/38/38 39/41/41 42/42/42 41/39/39
f 40/40/40 41/39/39 44/43/43 43/44/44
f 41/39/39 42/42/42 45/45/45 44/43/43
